<?xml version="1.0" standalone="no"?>
<!DOCTYPE svg PUBLIC "-//W3C//DTD SVG 20010904//EN"
 "http://www.w3.org/TR/2001/REC-SVG-20010904/DTD/svg10.dtd">
<svg version="1.0" xmlns="http://www.w3.org/2000/svg"
 width="500.000000pt" height="500.000000pt" viewBox="0 0 500.000000 500.000000"
 preserveAspectRatio="xMidYMid meet">

<g transform="translate(0.000000,500.000000) scale(0.100000,-0.100000)"
fill="#000000" stroke="none">
<path d="M2481 4280 c-88 -30 -216 -126 -372 -278 l-146 -142 -17 -88 c-21
-106 -77 -307 -109 -394 -29 -76 -205 -627 -241 -753 -14 -49 -26 -102 -26
-117 0 -33 31 -97 89 -183 40 -59 40 -60 22 -79 -19 -18 -20 -18 -65 12 l-46
31 -158 -72 c-86 -40 -205 -99 -263 -130 l-106 -56 -7 -328 c-3 -181 -6 -446
-6 -590 l0 -262 26 -31 c43 -51 108 -90 150 -90 20 0 89 16 153 34 145 44 319
87 483 121 153 32 126 38 419 -101 108 -51 225 -103 261 -114 l64 -22 80 31
c43 17 153 67 244 112 91 45 192 92 226 104 l60 23 155 -28 c162 -29 335 -71
507 -122 118 -34 150 -33 202 11 l34 28 2 611 1 612 -46 29 c-53 33 -220 118
-364 185 l-98 45 -46 -29 c-35 -23 -50 -27 -64 -19 -11 5 -19 13 -19 18 0 5
23 44 51 87 61 93 82 147 73 189 -18 88 -129 452 -230 749 -81 239 -128 407
-139 501 -7 59 -9 61 -109 165 -98 102 -263 243 -337 288 -54 33 -146 62 -193
61 -23 0 -65 -9 -95 -19z m144 -90 c4 -6 10 -8 15 -5 11 7 42 -24 35 -36 -4
-5 1 -9 9 -9 8 0 18 -5 22 -12 4 -6 3 -8 -4 -4 -6 3 -13 2 -17 -4 -3 -5 -2
-10 3 -10 5 0 9 -13 9 -30 0 -16 -4 -30 -9 -30 -5 0 -13 -11 -18 -25 -5 -14
-15 -25 -22 -25 -9 0 -8 -3 2 -10 13 -8 12 -10 -3 -10 -11 0 -15 -5 -11 -11
11 -18 10 -99 -1 -103 -6 -2 -3 -16 7 -35 16 -29 16 -31 0 -32 -15 -1 -15 -2
1 -6 9 -2 15 -9 12 -13 -3 -5 -16 -5 -31 0 -15 6 -23 6 -19 1 3 -5 19 -12 35
-16 16 -4 32 -10 35 -15 3 -5 -9 -4 -27 2 -89 28 -141 9 -288 -103 -127 -96
-234 -210 -297 -316 -31 -51 -57 -93 -58 -93 -8 0 27 94 54 148 50 98 132 235
158 263 19 21 22 29 11 35 -7 4 -10 4 -6 0 6 -7 -73 -76 -87 -76 -2 0 -1 8 2
18 6 15 5 15 -10 3 -11 -9 -17 -10 -17 -2 0 24 -17 8 -54 -50 -47 -72 -60
-118 -75 -262 -7 -60 -21 -138 -32 -175 -20 -63 -124 -292 -133 -292 -3 0 11
46 30 102 47 142 93 310 79 297 -6 -7 -145 -389 -145 -401 0 -16 -73 -198 -77
-194 -9 8 95 358 172 581 61 176 130 423 157 557 1 10 53 68 113 129 111 112
239 208 338 255 53 24 131 32 142 14z m181 -92 c44 -29 132 -104 196 -167 108
-105 118 -118 128 -165 25 -117 107 -398 190 -646 85 -254 125 -388 118 -396
-2 -1 -26 59 -52 134 -49 137 -160 429 -177 467 -10 21 -9 17 7 -80 4 -22 4
-37 0 -34 -4 4 -25 96 -46 205 -50 250 -84 380 -107 408 -41 50 -220 219 -245
232 -16 8 -28 19 -28 25 0 6 -5 7 -12 3 -6 -4 -8 -3 -5 3 4 6 0 16 -8 23 -10
9 -15 9 -15 1 0 -6 -5 -11 -12 -11 -9 0 -9 3 0 12 10 10 7 15 -10 25 -13 7
-18 12 -11 13 6 0 46 -24 89 -52z m-70 -42 c1 -7 -4 -13 -12 -13 -9 0 -11 4
-4 12 5 7 8 15 5 18 -3 4 -2 5 2 2 4 -3 8 -11 9 -19z m54 -66 c0 -5 -2 -10 -4
-10 -3 0 -8 5 -11 10 -3 6 -1 10 4 10 6 0 11 -4 11 -10z m-52 -173 c8 -10 6
-13 -7 -13 -11 0 -17 6 -14 13 3 7 6 13 8 13 1 0 7 -6 13 -13z m-161 -537 c17
0 45 22 95 73 l71 72 -5 -53 c-5 -52 -5 -52 16 -39 12 8 37 18 56 21 l35 8
-30 -26 c-49 -41 -172 -126 -184 -126 -25 0 -35 -48 -21 -107 16 -76 18 -112
6 -117 -6 -3 -3 -10 7 -16 9 -6 15 -15 12 -21 -4 -5 -1 -9 4 -9 18 0 12 -26
-9 -45 -12 -10 -18 -25 -15 -32 2 -8 1 -12 -4 -8 -16 9 -63 -14 -55 -27 5 -7
-8 1 -28 19 -20 17 -46 34 -58 38 -12 4 -19 12 -16 18 120 275 120 279 54 313
-36 19 -75 46 -156 111 -59 47 -48 57 27 23 32 -15 40 -16 31 -5 -8 9 -10 28
-6 50 l7 34 71 -74 c50 -53 78 -75 95 -75z m-227 -60 c8 -5 24 -18 34 -29 19
-21 19 -21 -13 -21 -41 0 -91 21 -116 50 l-20 23 50 -8 c28 -4 57 -11 65 -15z
m559 3 c-19 -23 -88 -53 -123 -53 l-29 0 23 25 c25 27 66 43 114 44 25 1 27
-1 15 -16z m-697 -139 c22 -20 55 -42 74 -50 18 -8 37 -21 42 -30 8 -15 12
-15 41 1 18 9 35 14 39 11 3 -3 0 -23 -6 -45 -7 -21 -12 -54 -12 -73 0 -34 -8
-42 -84 -76 -4 -3 -5 5 -1 17 9 30 -1 26 -55 -19 -30 -25 -51 -36 -55 -30 -4
6 -1 18 7 27 11 14 11 16 -2 8 -9 -5 -7 1 5 15 13 15 14 20 5 16 -8 -5 -2 4
15 19 29 26 29 27 10 37 -27 16 -84 78 -91 101 -6 19 14 107 24 107 2 0 22
-16 44 -36z m568 -124 c0 -5 -4 -10 -10 -10 -5 0 -10 5 -10 10 0 6 5 10 10 10
6 0 10 -4 10 -10z m-588 -84 c7 4 8 3 4 -4 -10 -16 -18 -15 -42 4 -18 14 -18
15 4 4 12 -6 28 -8 34 -4z m279 -91 c29 -15 29 -16 12 -39 -10 -13 -20 -22
-22 -20 -11 10 -55 -40 -56 -64 0 -16 -5 -26 -12 -24 -7 1 -12 -1 -10 -5 1 -5
-2 -10 -8 -12 -5 -2 -21 -11 -35 -21 -35 -25 -104 -47 -175 -55 l-60 -8 54 41
c29 22 83 73 118 112 60 65 119 108 151 110 7 0 26 -7 43 -15z m294 1 c19 -8
83 -64 142 -124 l109 -110 -50 19 c-68 27 -85 37 -131 74 -69 55 -92 67 -92
50 0 -8 4 -12 8 -10 4 3 5 -4 2 -16 -4 -13 -8 -17 -13 -9 -4 6 -11 12 -16 12
-13 0 -94 60 -94 69 0 14 67 56 93 58 4 1 23 -5 42 -13z m-313 -83 c-6 -2 -10
-9 -7 -13 3 -5 1 -11 -4 -14 -7 -5 -8 11 -2 32 1 1 7 2 14 1 9 0 9 -2 -1 -6z
m173 -69 l40 -36 -37 15 c-20 8 -40 12 -44 9 -4 -4 -4 -1 0 6 8 14 5 15 -18 6
-12 -5 -14 -10 -6 -19 9 -11 6 -12 -12 -8 -18 4 -20 3 -8 -6 8 -6 12 -11 8
-11 -3 0 -14 -3 -22 -6 -13 -5 -15 -2 -9 12 6 18 6 18 -14 2 -11 -10 -23 -18
-28 -18 -5 0 4 11 21 24 16 13 40 33 54 45 14 11 27 20 30 20 3 0 23 -16 45
-35z m-600 -59 c-10 -19 -14 -42 -11 -51 4 -9 1 -24 -6 -32 -8 -10 -9 -13 -1
-9 7 5 9 0 6 -13 -3 -11 -12 -20 -20 -20 -8 0 -13 -8 -12 -17 1 -10 0 -25 -4
-33 -19 -52 -27 -89 -28 -129 0 -41 -1 -43 -11 -21 -26 65 23 321 72 370 11
11 21 26 21 33 1 6 4 0 6 -15 2 -15 -3 -43 -12 -63z m-292 -158 c18 -29 47
-72 63 -97 44 -67 45 -70 40 -70 -6 0 -127 157 -154 201 -17 27 -19 38 -10 47
10 10 14 8 20 -9 4 -11 23 -44 41 -72z m1485 -27 c0 -45 0 -45 -8 -10 -4 19
-10 55 -13 80 l-6 45 14 -35 c7 -19 13 -55 13 -80z m241 37 c-46 -72 -130
-179 -137 -172 -3 3 4 15 15 28 11 12 37 49 58 82 73 115 89 137 93 126 2 -6
-11 -35 -29 -64z m-1371 14 c10 -6 11 -18 3 -52 -14 -59 -13 -66 3 -66 8 0 12
6 8 15 -3 10 -1 13 6 8 7 -4 14 4 19 21 6 22 9 12 13 -47 l5 -75 23 48 c12 26
32 68 45 95 l22 47 5 -100 5 -100 23 25 c12 13 22 28 22 34 0 5 3 7 6 4 3 -3
0 -26 -7 -49 -7 -24 -12 -51 -10 -59 1 -9 -9 -25 -22 -37 -37 -31 -70 -165
-70 -283 0 -96 6 -131 38 -205 l17 -40 -21 19 c-34 31 -70 100 -87 168 -20 77
-14 210 15 313 20 70 20 70 0 45 -11 -14 -34 -40 -51 -58 -26 -28 -34 -44 -37
-75 -1 -11 -92 -67 -110 -67 -12 0 -12 2 2 13 34 25 50 89 58 234 6 108 13
154 28 188 20 46 26 51 49 36z m329 -68 l-5 -27 19 25 19 24 0 -43 c0 -29 -4
-41 -11 -36 -8 4 -9 -1 -4 -16 5 -17 4 -21 -6 -15 -9 6 -11 3 -6 -11 7 -18 6
-18 -6 -2 -13 16 -15 16 -26 -9 -9 -19 -9 -29 -1 -37 9 -8 11 -7 8 6 -1 9 2
16 7 15 6 -1 9 -9 7 -17 -2 -8 -5 -33 -7 -55 -2 -22 -4 -42 -5 -45 -1 -3 -1
-15 0 -27 1 -12 -4 -31 -10 -43 -6 -11 -11 -54 -11 -95 0 -47 -4 -75 -11 -75
-7 0 -9 -19 -6 -52 l5 -53 -28 58 c-36 77 -38 77 -27 10 11 -79 33 -144 79
-237 36 -73 37 -77 13 -55 -69 64 -126 186 -138 294 -6 60 7 230 23 291 5 17
5 38 0 46 -5 10 -4 15 6 15 8 0 11 -5 8 -10 -4 -6 -1 -7 6 -2 9 5 10 10 2 18
-18 18 -13 31 6 16 9 -8 14 -9 10 -3 -4 7 0 15 9 18 9 3 14 11 12 18 -2 6 6
22 19 36 13 14 28 42 35 64 13 44 23 51 15 11z m143 -30 c6 -21 17 -89 26
-151 15 -113 13 -162 -20 -505 -3 -26 -1 -45 3 -43 5 3 1 -19 -8 -49 -9 -29
-17 -52 -19 -50 -2 2 -17 70 -33 152 -40 202 -42 366 -4 539 37 168 37 168 55
107z m557 -19 c11 -18 19 -59 24 -133 7 -105 24 -167 57 -205 17 -19 16 -19
-18 0 -50 29 -82 79 -69 108 10 21 3 77 -27 229 -7 35 10 35 33 1z m-1565
-259 l3 -80 -23 25 c-13 14 -21 18 -17 10 4 -8 -5 -1 -19 15 -14 17 -26 26
-26 20 0 -11 44 -92 74 -137 18 -27 17 -27 -6 -33 -14 -4 -43 3 -70 15 -26 11
-51 20 -54 19 -4 0 -11 6 -16 15 -5 9 -14 16 -20 16 -6 0 -9 -3 -5 -6 3 -4 -3
-14 -14 -23 -11 -9 -21 -26 -22 -38 0 -12 -5 -20 -9 -17 -4 3 -5 12 -2 22 5
15 4 15 -6 -1 -12 -19 -15 -14 76 -130 26 -32 44 -60 41 -63 -4 -5 -39 34
-116 126 -12 14 -20 19 -19 11 2 -7 -5 -15 -15 -16 -13 -3 -17 1 -13 12 5 13
4 13 -7 4 -11 -9 -17 -7 -28 6 -13 17 -13 17 6 3 18 -14 -6 15 -91 105 l-30
33 50 30 c98 57 230 124 300 152 l71 29 2 -22 c1 -12 4 -58 5 -102z m2275 19
c196 -100 230 -120 178 -108 -45 10 -383 177 -389 192 -11 25 28 10 211 -84z
m-1410 -86 c-3 -8 -6 -5 -6 6 -1 11 2 17 5 13 3 -3 4 -12 1 -19z m354 -118 c5
0 9 6 10 13 0 9 2 9 5 0 5 -11 -22 -73 -31 -73 -3 0 -4 21 -4 48 1 26 3 39 6
30 2 -10 9 -18 14 -18z m234 -122 c4 4 -3 -11 -14 -34 -12 -22 -33 -52 -47
-65 l-26 -24 20 45 c12 25 24 58 27 75 6 27 8 28 19 13 7 -10 16 -14 21 -10z
m-164 -43 c15 10 10 -8 -17 -60 -28 -54 -59 -91 -86 -106 -12 -7 -9 3 11 33
16 24 37 60 47 81 10 20 21 37 25 37 4 0 6 8 4 18 -1 9 0 11 2 4 3 -7 9 -10
14 -7z m-1584 -54 c55 -22 113 -43 129 -47 16 -3 41 -18 57 -32 26 -25 27 -29
27 -130 l0 -104 -52 7 c-29 4 -56 9 -60 12 -5 2 -8 37 -8 78 l0 73 -62 21
c-34 12 -66 21 -70 21 -4 0 -8 -127 -8 -283 0 -343 0 -345 103 -316 l38 10 -3
62 c-3 62 -3 62 -35 65 l-33 3 0 75 c0 85 -8 81 113 62 l77 -11 0 -139 c0
-207 -3 -211 -177 -258 -100 -28 -128 -20 -164 43 -24 42 -24 43 -27 407 -3
380 0 420 37 420 10 0 64 -18 118 -39z m2749 25 c18 -14 19 -32 22 -425 l3
-410 -25 -16 c-20 -13 -31 -14 -65 -5 -42 11 -58 24 -41 35 6 3 10 47 10 100
l0 94 -37 10 c-21 6 -42 11 -46 11 -5 0 -7 -47 -5 -105 l3 -106 -25 6 c-14 3
-41 10 -60 15 l-35 9 3 328 c2 300 4 330 21 353 12 16 58 42 132 72 63 26 117
47 120 48 3 0 14 -6 25 -14z m-2403 -131 c33 -7 61 -15 63 -18 2 -2 24 -77 50
-168 25 -90 50 -175 54 -189 6 -16 9 41 7 157 l-2 182 23 -4 c12 -3 32 -7 45
-10 l22 -4 -3 -253 c-1 -139 -4 -258 -7 -265 -4 -11 -54 -28 -104 -35 -23 -3
-26 5 -72 162 l-48 165 1 -175 1 -174 -24 -6 c-13 -4 -35 -10 -49 -13 l-25 -6
0 334 c0 184 2 335 5 335 3 -1 31 -7 63 -15z m2017 -35 c18 -18 20 -33 20
-149 0 -115 -2 -131 -21 -155 -11 -14 -27 -26 -34 -26 -26 0 -26 -19 1 -82 14
-35 36 -93 49 -129 l23 -66 -51 12 -50 11 -38 95 c-21 52 -41 99 -43 104 -3 6
-4 -34 -3 -88 l2 -98 -35 6 c-19 3 -42 8 -50 10 -13 4 -15 43 -15 275 0 307
-11 271 90 289 88 16 133 13 155 -9z m-309 -238 c-2 -136 1 -243 7 -265 12
-41 10 -42 -58 -31 l-35 6 0 253 0 254 45 4 c25 2 45 4 45 5 0 1 -2 -101 -4
-226z m-1194 197 c15 -6 38 -20 51 -31 21 -21 22 -28 22 -195 l0 -174 -32 -30
c-60 -54 -143 -60 -203 -15 l-35 27 0 194 0 194 26 20 c30 24 121 29 171 10z
m1053 -34 l0 -45 -80 0 -80 0 0 -50 0 -50 70 0 70 0 -10 -26 c-6 -14 -10 -36
-10 -50 0 -25 -1 -25 -60 -18 l-60 7 0 -51 0 -50 80 -7 80 -7 0 -50 c0 -47 -1
-50 -22 -45 -13 3 -70 9 -128 13 l-105 6 0 225 c0 257 -13 231 115 236 41 2
90 4 108 5 32 2 32 2 32 -43z m-759 -2 c14 -16 35 -45 47 -65 17 -31 18 -37 5
-42 -22 -9 -33 2 -33 30 0 24 -3 25 -46 22 l-46 -3 -2 -124 c0 -72 3 -130 9
-138 7 -9 24 -13 45 -11 31 3 35 6 38 36 3 27 -1 35 -17 39 -17 4 -21 13 -21
44 l0 39 65 0 65 0 0 -96 c0 -94 -1 -97 -35 -144 -19 -26 -54 -65 -77 -86
l-43 -39 -3 58 c-2 44 -7 59 -20 63 -100 32 -105 44 -101 241 l4 155 28 24
c41 35 105 33 138 -3z m449 -159 l0 -186 -34 -34 c-32 -32 -37 -34 -106 -34
-69 0 -74 2 -106 34 -32 32 -34 38 -34 101 l0 66 29 -20 c16 -12 36 -21 45
-21 11 0 16 -9 16 -28 0 -35 16 -52 50 -52 47 0 50 12 50 192 l0 168 45 0 45
0 0 -186z m-273 128 c1 -23 -2 -29 -13 -25 -18 7 -19 66 -1 61 6 -3 13 -19 14
-36z m83 -89 l-5 -68 -3 54 c-3 47 1 81 10 81 2 0 1 -30 -2 -67z"/>
<path d="M2616 3951 c-4 -7 -5 -15 -2 -18 9 -9 19 4 14 18 -4 11 -6 11 -12 0z"/>
<path d="M2255 2179 c-4 -6 -5 -12 -2 -15 2 -3 7 2 10 11 7 17 1 20 -8 4z"/>
<path d="M2970 1751 c0 -5 5 -13 10 -16 6 -3 10 -2 10 4 0 5 -4 13 -10 16 -5
3 -10 2 -10 -4z"/>
<path d="M3860 1536 l-35 -13 -3 -151 -3 -152 23 0 c13 0 33 -3 46 -6 l22 -6
0 171 c0 94 -3 171 -7 170 -5 0 -24 -6 -43 -13z"/>
<path d="M3483 1433 c-21 -4 -23 -10 -23 -74 l0 -69 40 0 c46 0 53 14 48 96
-3 52 -11 58 -65 47z"/>
<path d="M2013 1403 c-10 -3 -13 -43 -13 -148 0 -130 2 -145 18 -154 11 -6 32
-7 48 -2 l29 7 3 147 3 147 -25 0 c-13 0 -30 2 -38 4 -7 3 -19 2 -25 -1z"/>
</g>
</svg>
